<svg data-v-f99cc770="" width="41" height="41" xmlns="http://www.w3.org/2000/svg" viewBox="0 0 41 41" class="icon icon--multi"><g clip-path="url(#a)"><path d="M39.666 33.24h-5.37A18.92 18.92 0 0 0 39.666 20c0-2.17-.36-4.3-1.08-6.33a1.003 1.003 0 0 0-1.89.67c.64 1.81.97 3.72.97 5.66 0 4.57-1.8 8.87-5 12.04v-5.81c0-.55-.45-1-1-1s-1 .45-1 1v7.5c0 .83.67 1.5 1.5 1.5h7.5c.55 0 1-.45 1-1s-.45-.99-1-.99ZM26.326 36.03c-1.81.65-3.72.97-5.66.97-4.57 0-8.86-1.8-12.04-5h5.81c.55 0 1-.45 1-1s-.45-1-1-1h-7.5c-.83 0-1.5.67-1.5 1.5V39c0 .55.45 1 1 1s1-.45 1-1v-5.38c3.52 3.44 8.22 5.38 13.23 5.38 2.17 0 4.3-.36 6.33-1.08.52-.18.79-.75.61-1.28-.19-.52-.76-.79-1.28-.61ZM3.666 20c0-4.57 1.8-8.87 5-12.04v5.81c0 .55.45 1 1 1s1-.45 1-1v-7.5c0-.83-.67-1.5-1.5-1.5h-7.5c-.55 0-1 .45-1 1s.45 1 1 1h5.37A18.878 18.878 0 0 0 1.666 20c0 2.17.36 4.3 1.08 6.33.14.41.53.67.94.67a1.003 1.003 0 0 0 .94-1.34c-.63-1.81-.96-3.72-.96-5.66ZM15.006 3.97c1.81-.65 3.72-.97 5.66-.97 4.57 0 8.86 1.8 12.04 5h-5.81c-.55 0-1 .45-1 1s.45 1 1 1h7.5c.83 0 1.5-.67 1.5-1.5V1c0-.55-.45-1-1-1s-1 .45-1 1v5.38A18.844 18.844 0 0 0 20.666 1c-2.17 0-4.3.36-6.33 1.08-.52.18-.79.75-.61 1.28.19.52.76.79 1.28.61Z"></path></g><defs><clipPath id="a"><path transform="translate(.666)" d="M0 0h40v40H0z"></path></clipPath></defs></svg>