<svg data-v-f99cc770="" width="41" height="41" xmlns="http://www.w3.org/2000/svg" viewBox="0 0 41 41" class="icon icon--multi">
    <path d="M8.334 39c-.55 0-1-.45-1-1V15h25c.55 0 1 .45 1 1v23h-25Zm4-28c0-4.59 3.89-8.29 8.55-7.98 4.25.28 7.45 4.01 7.45 8.26V13h-16v-2Zm21 2h-3v-1.65c0-5.32-4.01-9.97-9.32-10.33-5.82-.39-10.68 4.24-10.68 9.98v2h-3c-1.1 0-2 .9-2 2v24c0 1.1.9 2 2 2h26c1.1 0 2-.9 2-2V15c0-1.1-.9-2-2-2Z"></path>
    <path d="M23.274 26.62c-.17.87-.77 1.6-1.54 2.04l-.4.23V32c0 .55-.45 1-1 1s-1-.45-1-1v-3.11l-.4-.23c-.77-.44-1.36-1.17-1.53-2.04a2.995 2.995 0 0 1 2.93-3.62c1.86 0 3.32 1.69 2.94 3.62Zm-4.1-5.49c-1.45.33-2.7 1.34-3.34 2.68a5.007 5.007 0 0 0 1.5 6.19v1.88c0 1.45.98 2.78 2.4 3.06 1.92.37 3.6-1.09 3.6-2.94v-2c1.25-.94 2-2.42 2-4 0-3.14-2.9-5.61-6.16-4.87Z"></path>
</svg>