        <svg width="100%" height="100%" fill="none" xmlns="http://www.w3.org/2000/svg" viewBox="0 0 401 300">
          <g clip-path="url(#a)">
            <path d="M.958 0h400v300h-400z"></path>
            <path d="M200.958 58.554.958 277.16h400l-200-218.607Z" fill="#F3F6F9"></path>
            <path
              d="M200.958 58.997V45.49c0-20.54-16.662-37.208-37.193-37.208-20.532 0-37.194 16.668-37.194 37.208v95.015"
              stroke="#00112C"
              stroke-width=".679"
              stroke-miterlimit="10"
              stroke-linecap="round"
              stroke-linejoin="round"
            ></path>
            <path
              d="M201.992 59.765c-21.211 20.451-19.705 40.577-19.705 40.577h56.839l-37.134-40.577Z"
              fill="#0ABF53"
              stroke="#00112C"
              stroke-width=".679"
              stroke-miterlimit="10"
              stroke-linecap="round"
              stroke-linejoin="round"
            ></path>
            <path
              d="m201.992 59.765-1.122-1.241-38.257 41.818h19.675s-1.507-20.126 19.704-40.577Z"
              fill="#00112C"
              stroke="#00112C"
              stroke-width=".679"
              stroke-miterlimit="10"
              stroke-linecap="round"
              stroke-linejoin="round"
            ></path>
            <path
              d="m52.303 140.506-4.225 4.226 14.535 101.516 142.747.946 5.17-5.142-14.535-101.546H52.303Z"
              fill="#F3F6F9"
              stroke="#00112C"
              stroke-width=".679"
              stroke-miterlimit="10"
              stroke-linecap="round"
              stroke-linejoin="round"
            ></path>
            <path
              d="M66.837 242.052h143.692l-14.534-101.546H52.302l14.535 101.546Z"
              fill="#FFFEFF"
              stroke="#00112C"
              stroke-width=".679"
              stroke-miterlimit="10"
              stroke-linecap="round"
              stroke-linejoin="round"
            ></path>
            <path
              d="M126.275 147.657a1.034 1.034 0 1 0 0-2.068 1.034 1.034 0 0 0 0 2.068Z"
              fill="#00112C"
              stroke="#fff"
              stroke-width=".679"
              stroke-miterlimit="10"
              stroke-linecap="round"
            ></path>
            <path
              d="M122.051 147.657a1.033 1.033 0 1 0 0-2.066 1.033 1.033 0 0 0 0 2.066Z"
              fill="#0ABF53"
              stroke="#00112C"
              stroke-width=".679"
              stroke-miterlimit="10"
              stroke-linecap="round"
            ></path>
            <path
              d="M197.708 152.445H54.016"
              stroke="#00112C"
              stroke-width=".679"
              stroke-miterlimit="10"
              stroke-linecap="round"
              stroke-linejoin="round"
            ></path>
            <path
              d="M135.433 246.721h-7.976v30.351h7.976v-30.351Z"
              fill="#F3F6F9"
              stroke="#00112C"
              stroke-width=".679"
              stroke-miterlimit="10"
              stroke-linecap="round"
              stroke-linejoin="round"
            ></path>
            <path d="M127.369 246.396h8.094v1.803h-8.094v-1.803Z" fill="#00112C"></path>
            <path
              d="m68.166 241.963-5.583 4.522L47.93 145.737l4.55-5.231 15.686 101.457Z"
              fill="#00112C"
              stroke="#00112C"
              stroke-width=".679"
              stroke-miterlimit="10"
              stroke-linecap="round"
              stroke-linejoin="round"
            ></path>
            <path d="M400.958 277.161h-400" stroke="#00112C" stroke-width=".679" stroke-miterlimit="10" stroke-linecap="round"></path>
            <path
              d="M201.874 274.413h-88.626v2.66h88.626v-2.66Z"
              fill="#00112C"
              stroke="#00112C"
              stroke-width=".679"
              stroke-miterlimit="10"
              stroke-linecap="round"
              stroke-linejoin="round"
            ></path>
            <path
              d="M206.985 274.413h-82.127v2.719h82.127v-2.719Z"
              fill="#FFFEFF"
              stroke="#00112C"
              stroke-width=".679"
              stroke-miterlimit="10"
              stroke-linecap="round"
              stroke-linejoin="round"
            ></path>
            <path
              d="M297.649 207.622s1.093-4.936-1.477-16.284c-2.57-11.378 16.957-2.867 16.957-2.867l7.356 16.136-22.836 3.015Z"
              fill="#9E5D52"
              stroke="#00122E"
              stroke-width=".679"
              stroke-miterlimit="10"
              stroke-linecap="round"
              stroke-linejoin="round"
            ></path>
            <path
              d="M187.339 267.645s-2.068-2.335-4.077-4.167c-2.008-1.803-3.279-.237-3.279-.237l-9.069 7.95 4.313 3.044h14.417"
              fill="#9E5D52"
            ></path>
            <path
              d="M187.339 267.645s-2.068-2.335-4.077-4.167c-2.008-1.803-3.279-.237-3.279-.237l-9.069 7.95 4.313 3.044h14.417"
              stroke="#00122E"
              stroke-width=".679"
              stroke-miterlimit="10"
              stroke-linecap="round"
              stroke-linejoin="round"
            ></path>
            <path d="M181.874 265.015s-1.477-1.301-3.161-2.631c-1.684-1.329-2.955.089-2.955.089l-4.874 5.172 3.959 4.551" fill="#9E5D52"></path>
            <path
              d="M181.874 265.015s-1.477-1.301-3.161-2.631c-1.684-1.329-2.955.089-2.955.089l-4.874 5.172 3.959 4.551"
              stroke="#00122E"
              stroke-width=".679"
              stroke-miterlimit="10"
              stroke-linecap="round"
              stroke-linejoin="round"
            ></path>
            <path d="m173.543 265.931-4.904 7.152c0 .62.502 1.123 1.123 1.123h.856c.296 0 .591-.089.798-.296l5.584-5.438" fill="#00112C"></path>
            <path d="m168.875 265.931-4.904 7.152c0 .62.503 1.123 1.123 1.123h.857c.295 0 .591-.089.797-.296l5.584-5.438" fill="#00112C"></path>
            <path d="m177.708 272.639-8.656-2.807 2.423-6.177s1.654-2.748 4.313-1.211c2.659 1.536 3.25 2.541 3.25 2.541" fill="#9E5D52"></path>
            <path
              d="m177.708 272.639-8.656-2.807 2.423-6.177s1.654-2.748 4.313-1.211c2.659 1.536 3.25 2.541 3.25 2.541"
              stroke="#00122E"
              stroke-width=".679"
              stroke-miterlimit="10"
              stroke-linecap="round"
              stroke-linejoin="round"
            ></path>
            <path
              d="m184.828 274.235 57.105 2.69a16.256 16.256 0 0 0 8.715-2.069l49.69-28.135 1.093-39.099-62.659 49.945-52.349 9.782"
              fill="#9E5D52"
            ></path>
            <path
              d="m184.828 274.235 57.105 2.69a16.256 16.256 0 0 0 8.715-2.069l49.69-28.135 1.093-39.099-62.659 49.945-52.349 9.782"
              stroke="#00122E"
              stroke-width=".679"
              stroke-miterlimit="10"
              stroke-linecap="round"
              stroke-linejoin="round"
            ></path>
            <path
              d="M175.611 265.931s-5.111-3.576-6.588-2.542c-1.448 1.035-12.999 9.25-12.999 9.25 0 .857.709 1.567 1.566 1.567h.502c.207 0 .414-.03.621-.148l10.28-4.256 6.234 4.374h13.353"
              fill="#9E5D52"
            ></path>
            <path
              d="M175.611 265.931s-5.111-3.576-6.588-2.542c-1.448 1.035-12.999 9.25-12.999 9.25 0 .857.709 1.567 1.566 1.567h.502c.207 0 .414-.03.621-.148l10.28-4.256 6.234 4.374h13.353"
              stroke="#00122E"
              stroke-width=".679"
              stroke-miterlimit="10"
              stroke-linecap="round"
              stroke-linejoin="round"
            ></path>
            <path
              d="M267.871 253.843s-1.241 10.817-11.019 17.496l18.67-10.58-7.651-6.916Z"
              fill="#00112C"
              stroke="#00112C"
              stroke-width=".679"
              stroke-miterlimit="10"
              stroke-linecap="round"
              stroke-linejoin="round"
            ></path>
            <path
              d="M279.274 311s8.863-6.443 10.458-17.969c.502-3.605-5.968-14.333-5.347-25.888.413-7.478 1.831-9.369 1.831-9.369-4.165 1.123-14.977 7.152-14.977 7.152-.148.148-3.398-6.058-4.166-8.009-3.693-9.723-5.613-15.516-4.638-25.889 8.419-7.891 20.62-16.609 29.158-23.052 8.744-6.62 28.42-5.881 37.459-1.477 9.927 4.817 21.862 19.209 28.184 104.501"
              fill="#0ABF53"
            ></path>
            <path
              d="M279.274 311s8.863-6.443 10.458-17.969c.502-3.605-5.968-14.333-5.347-25.888.413-7.478 1.831-9.369 1.831-9.369-4.165 1.123-14.977 7.152-14.977 7.152-.148.148-3.398-6.058-4.166-8.009-3.693-9.723-5.613-15.516-4.638-25.889 8.419-7.891 20.62-16.609 29.158-23.052 8.744-6.62 28.42-5.881 37.459-1.477 9.927 4.817 21.862 19.209 28.184 104.501"
              stroke="#00112C"
              stroke-width=".679"
              stroke-miterlimit="10"
              stroke-linecap="round"
              stroke-linejoin="round"
            ></path>
            <path
              d="M300.869 311h61.389v-61.412h-46.765c-8.065 0-14.624 6.561-14.624 14.629V311Z"
              fill="#E8EDF3"
              stroke="#00112C"
              stroke-width=".679"
              stroke-miterlimit="10"
              stroke-linecap="round"
              stroke-linejoin="round"
            ></path>
            <path
              d="M305.389 311h61.389v-61.412h-46.765c-8.065 0-14.624 6.561-14.624 14.629V311Z"
              fill="#00112C"
              stroke="#00112C"
              stroke-width=".679"
              stroke-miterlimit="10"
              stroke-linecap="round"
              stroke-linejoin="round"
            ></path>
            <path
              d="M384.533 311h-61.389v-61.412h46.765c8.065 0 14.624 6.561 14.624 14.629V311ZM284.68 258.336l11.049-4.759s-11.285 11.467-11.314 13.595l.265-8.836Z"
              fill="#00112C"
              stroke="#00112C"
              stroke-width=".679"
              stroke-miterlimit="10"
              stroke-linecap="round"
              stroke-linejoin="round"
            ></path>
            <path
              d="M297.029 188.707s-20.414 7.359-18.789-23.11l1.625-11.97 10.901-3.605c10.96-3.606 22.393 4.049 23.279 15.545l1.359 17.88c-.856 1.862-2.836 5.851-2.836 5.851"
              fill="#9E5D52"
            ></path>
            <path
              d="M297.029 188.707s-20.414 7.359-18.789-23.11l1.625-11.97 10.901-3.605c10.96-3.606 22.393 4.049 23.279 15.545l1.359 17.88c-.856 1.862-2.836 5.851-2.836 5.851"
              stroke="#00122E"
              stroke-width=".679"
              stroke-miterlimit="10"
              stroke-linecap="round"
              stroke-linejoin="round"
            ></path>
            <path
              d="M328.343 155.489c-2.215-1.714-1.181-5.349-1.861-8.127-1.27-5.261-14.18-10.048-18.848-10.994-14.712-2.985-25.613-1.684-29.099 4.019-2.924 2.897-8.065 13.92-8.065 13.92l14.033 9.014 2.245-3.458c-.118 1.241 1.329 6.797 1.802 10.078-.03.207 2.334-.709 2.304-.473-.502 3.753-1.772 7.891.178 11.083.62 1.004 1.506 1.832 2.038 2.866l28.39-1.625 7.06-.414 1.773-.089-1.448-25.445c-.177-.148-.354-.237-.502-.355Z"
              fill="#00112C"
              stroke="#00112C"
              stroke-width=".679"
              stroke-miterlimit="10"
              stroke-linecap="round"
              stroke-linejoin="round"
            ></path>
            <path
              d="M287.575 187.141c-2.304 3.251-5.642 5.527-9.217 7.004 4.372 3.99 10.96 5.645 16.691 5.704 2.305-3.339 2.925-6.709 3.486-10.846l.355 9.102c0 .326.029.651.207.917.177.266.502.443.827.502 6.706 1.537 16.543 1.803 23.84-.68-.384-2.807-2.747-6.236-3.486-8.984 1.241 2.246 5.348 7.684 5.791 7.654 1.181-.088 14.653-6.827 20.236-12.855-4.165-1.951-7.681-5.468-9.749-9.783 2.038 3.133 5.436 5.202 8.981 5.438-6.027-4.758-9.749-12.176-12.615-19.594-1.979-5.172-3.751-10.61-7.296-14.717-2.777-3.222-6.47-5.35-10.281-6.827-5.2-1.98-10.783-2.778-16.248-2.306-2.334.207-4.845.71-6.529 2.453 3.072 1.715 6.056 3.783 8.39 6.561 2.334 2.778 4.018 6.266 4.224 9.989.266 4.433-1.624 8.807-4.431 12.058-1.507 1.744-3.279 3.222-5.14 4.463-1.359.916-4.077 1.655-4.993 3.073-.857 1.33-.177 3.931-.473 5.527-.384 2.246-1.299 4.344-2.57 6.147Z"
              fill="#00112C"
              stroke="#00112C"
              stroke-width=".679"
              stroke-miterlimit="10"
              stroke-linecap="round"
              stroke-linejoin="round"
            ></path>
            <path
              d="M306.571 129.068c.621-3.191 2.482-6.235 5.318-7.831 3.752-2.099 8.685-1.271 12.082 1.359.355.266.68.562.857.946.237.532.148 1.123.059 1.684a28.368 28.368 0 0 1-1.625 5.556c1.064-1.743 2.157-3.487 3.221-5.23.118-.207.295-.444.502-.532.266-.089.532.029.768.147 1.979.976 3.279 3.163 3.249 5.35-.029 2.186-1.388 4.344-3.397 5.26a13.97 13.97 0 0 0 3.841-3.133c.974 2.069.118 4.552-1.093 6.502-2.896 4.64-10.577 10.817-16.455 8.068-5.82-2.719-8.449-12.294-7.327-18.146Z"
              fill="#00112C"
              stroke="#00112C"
              stroke-width=".679"
              stroke-miterlimit="10"
              stroke-linecap="round"
              stroke-linejoin="round"
            ></path>
            <path
              d="M287.457 168.434c-.088-2.808 1.448-5.261 3.368-5.409.414-.029.857.03 1.27.266.621.355 1.123 1.064 1.477 1.862 1.153 2.453 1.566 7.123.562 9.369-1.005 2.246-3.634 3.576-5.406 4.433"
              fill="#9E5D52"
            ></path>
            <path
              d="M287.457 168.434c-.088-2.808 1.448-5.261 3.368-5.409.414-.029.857.03 1.27.266.621.355 1.123 1.064 1.477 1.862 1.153 2.453 1.566 7.123.562 9.369-1.005 2.246-3.634 3.576-5.406 4.433"
              stroke="#00122E"
              stroke-width=".679"
              stroke-miterlimit="10"
              stroke-linecap="round"
              stroke-linejoin="round"
            ></path>
            <path stroke="#0ABF53" stroke-width="2" stroke-linecap="round" d="M67.175 162.506H77.98"></path>
            <path stroke="#A5AFBD" stroke-width="2" stroke-linecap="round" d="M176.93 162.506h10.804"></path>
            <path
              stroke="#A5AFBD"
              stroke-width=".74"
              stroke-linecap="round"
              d="M159.954 162.362h12.065M143.017 162.362h12.064M67.891 171.169h23.603M109.013 196.291h23.603M103.891 171.169h56.19"
            ></path>
            <path
              stroke="#DCE0E5"
              stroke-width=".74"
              stroke-linecap="round"
              d="M68.891 178.169h17.594M105.891 178.169h44.228M70.891 190.169h17.594M122.684 211.291h17.594M113.957 229.648h17.594M145.23 230.005h17.594M176.502 230.363h17.594M160.532 212.291h17.594M107.891 190.169h45.788M72.891 202.169h17.594M74.891 214.169h17.594M76.891 226.169h17.594M69.891 184.169h20.603M121.684 206.291h20.603M112.957 223.648h20.603M144.23 224.005h20.603M175.502 224.363h20.604M159.532 206.291h20.603M106.891 184.169h36.28M71.891 196.291h20.603M73.891 208.291h20.603M75.891 220.291h20.603"
            ></path>
            <ellipse cx="114.358" cy="208.996" rx="4.144" ry="4.682" transform="rotate(-11 114.358 208.996)" fill="#DCE0E5"></ellipse>
            <ellipse cx="152.601" cy="209.102" rx="4.062" ry="4.59" transform="rotate(-11 152.601 209.102)" fill="#DCE0E5"></ellipse>
          </g>
          <defs>
            <clipPath id="a">
              <path fill="#fff" transform="translate(.958)" d="M0 0h400v300H0z"></path>
            </clipPath>
          </defs>
        </svg>