<svg data-v-f99cc770="" width="41" height="41" xmlns="http://www.w3.org/2000/svg" viewBox="0 0 41 41" class="icon icon--multi"><path d="M2.46 25a1 1 0 1 0 0-2 1 1 0 0 0 0 2ZM36.1 13a1 1 0 1 0 0-2 1 1 0 0 0 0 2Zm1.43 4a1 1 0 1 0 0-2 1 1 0 0 0 0 2ZM3.88 29.01a1 1 0 1 0 0-2 1 1 0 0 0 0 2ZM3 20c0-9.37 7.63-17 17-17 4.57 0 8.86 1.8 12.04 5h-5.81c-.55 0-1 .45-1 1s.45 1 1 1h7.5c.83 0 1.5-.67 1.5-1.5V1c0-.55-.45-1-1-1s-1 .45-1 1v5.38A18.844 18.844 0 0 0 20 1C9.52 1 1 9.52 1 20c0 .55.45 1 1 1s1-.45 1-1Zm35-1c-.55 0-1 .45-1 1 0 .64-.04 1.29-.11 1.94-.86 7.78-7.13 14.07-14.91 14.95A17.01 17.01 0 0 1 7.99 32h5.78c.55 0 1-.45 1-1s-.45-1-1-1h-7.5c-.83 0-1.5.67-1.5 1.5V39c0 .55.45 1 1 1s1-.45 1-1v-5.38C10.33 37.07 15.06 39 20.02 39c.72 0 1.45-.04 2.18-.12 8.7-.98 15.72-8.02 16.68-16.72.08-.72.12-1.45.12-2.16 0-.55-.45-1-1-1Zm-13.8-3.6-5.31 7.08-3.18-3.18a.996.996 0 1 0-1.41 1.41l4 4c.18.19.44.29.7.29h.07c.29-.02.55-.17.73-.4l6-8c.33-.44.24-1.07-.2-1.4-.44-.33-1.07-.24-1.4.2Z"></path></svg>